<svg xmlns="http://www.w3.org/2000/svg" xmlns:xlink="http://www.w3.org/1999/xlink" aria-hidden="true" role="img" class="iconify iconify--logos" width="31.88" height="32" preserveAspectRatio="xMidYMid meet" viewBox="0 0 256 257"><defs><linearGradient id="IconifyId1813088fe1fbc01fb466" x1="-.828%" x2="57.636%" y1="7.652%" y2="78.411%"><stop offset="0%" stop-color="#41D1FF"></stop><stop offset="100%" stop-color="#BD34FE"></stop></linearGradient><linearGradient id="IconifyId1813088fe1fbc01fb467" x1="43.376%" x2="50.316%" y1="2.242%" y2="89.03%"><stop offset="0%" stop-color="#FFEA83"></stop><stop offset="8.333%" stop-color="#FFDD35"></stop><stop offset="100%" stop-color="#FFA800"></stop></linearGradient></defs><path fill="url(#IconifyId1813088fe1fbc01fb466)" d="M255.153 37.938L134.897 252.976c-2.483 4.44-8.862 4.466-11.382.048L.875 37.958c-2.746-4.814 1.371-10.646 6.827-9.67l120.385 21.517a4 4 0 0 0 3.588-1.976l65.85-111.304c2.909-4.921 9.25-4.921 12.158 0L255.073 28.27c5.454.98 9.574 4.854 6.08 9.668Z"></path><path fill="url(#IconifyId1813088fe1fbc01fb467)" d="M185.432 253.238l-21.604-48.883c-1.609-3.636-5.866-4.756-9.3-2.36l-62.511 43.842c-4.538 3.182-10.673.371-11.332-4.756L62.16 95.971c-.844-6.439 5.259-11.308 10.846-8.088l102.423 59.043c4.763 2.745 11.008 1.166 13.773-3.48l27.621-47.28c3.586-6.134 11.834-6.134 15.42 0l27.6 47.28c2.765 4.646 9.01 6.225 13.773 3.48L258.894 87.91c5.587-3.22 11.69 1.65 10.846 8.088l-18.627 144.09c-.658 5.127-6.794 7.938-11.332 4.756l-62.51-43.841c-3.435-2.396-7.692-1.276-9.3 2.36l-21.604 48.883c-2.393 5.41-9.424 5.41-11.817 0Z"></path></svg>

